<svg xmlns="http://www.w3.org/2000/svg" viewBox="0 0 100.97 105.5" width="309" height="323"><g><path d="M50.244 0C22.49 0 0 22.49 0 50.244s22.49 50.244 50.244 50.244 50.244-22.49 50.244-50.244S78 0 50.244 0z" fill="#ffffff"/><path d="M36.8 66.8c6.7 0 12.6-3.1 16.9-8.8l-5.3-4c-3 4.1-6.6 6.2-10.9 6.2-5.8 0-9.9-4.3-9.9-10.3 0-6 4.1-10.2 9.9-10.2 4.3 0 7.9 2 10.9 6.1l5.3-3.9c-4.3-5.7-10.2-8.8-16.9-8.8-10 0-17.4 7.4-17.4 16.8 0 9.5 7.4 16.9 17.4 16.9z" fill="#ed1d24"/><path d="M57.1 66h7.4V35.5h-7.4V66z" fill="#ed1d24"/><path d="M57.1 30.2h7.4v-7.2h-7.4v7.2z" fill="#ed1d24"/></g></svg>
