<svg xmlns="http://www.w3.org/2000/svg" width="2500" height="2500" viewBox="0 0 192.756 192.756"><g fill-rule="evenodd" clip-rule="evenodd"><path fill="#fff" d="M0 0h192.756v192.756H0V0z"/><path d="M14.929 165.76c-.302.211-1.241.596-2.285.596-2.201 0-3.542-1.365-3.082-3.732s2.332-3.734 4.637-3.734c.897 0 1.658.221 2.171.482-.142.188-.293.594-.378.811l-.067.021a2.217 2.217 0 0 0-1.801-.928c-1.637 0-3.09 1.031-3.54 3.348s.601 3.348 2.238 3.348c.992 0 1.832-.566 2.286-.867l.034.039-.213.616zM21.877 158.889c2.305 0 3.646 1.367 3.186 3.734-.459 2.367-2.332 3.732-4.637 3.732-2.294 0-3.635-1.365-3.175-3.732.46-2.367 2.332-3.734 4.626-3.734zm-.075.386c-1.626 0-3.078 1.031-3.529 3.348-.45 2.316.601 3.348 2.228 3.348 1.639 0 3.09-1.031 3.541-3.348.45-2.316-.602-3.348-2.24-3.348zM28.647 158.889c.568 1.961 1.191 3.795 1.876 5.744.575-.809 2.818-3.812 4.216-5.744h.134c-.206 2.668-.439 4.939-.569 7.33a2.336 2.336 0 0 0-.98 0c.217-1.869.407-3.596.534-5.381h-.02c-1.289 1.744-2.58 3.449-3.77 5.33h-.093c-.478-1.732-1.088-3.523-1.646-5.33h-.02c-.534 1.723-1.309 4.203-1.548 5.381a1.278 1.278 0 0 0-.354-.051 1.49 1.49 0 0 0-.375.051c.812-2.305 1.776-5.121 2.437-7.33h.178zM43.328 159.025c.13.033.272.051.417.051.105 0 .225-.018.323-.051-.272.969-.712 2.805-1.027 4.328-.381 1.846-1.681 3.002-3.558 3.002-2.064 0-2.797-.957-2.403-2.986.126-.645.271-1.121.372-1.641.223-1.15.366-2.098.462-2.703.161.033.367.051.532.051.146 0 .318-.018.459-.051-.182.617-.52 2.033-.82 3.574-.276 1.422-.635 3.264 1.691 3.264 2.284 0 2.7-2.137 2.956-3.451.385-1.982.58-2.978.596-3.387zM51.25 166.355c-1.222-1.871-2.731-3.869-4.146-5.766a67.764 67.764 0 0 0-.444 2.117c-.174.896-.561 3.094-.589 3.512a1.223 1.223 0 0 0-.355-.051c-.124 0-.253.018-.396.051.179-.492.833-3.16 1.101-4.537.255-1.314.452-2.322.513-2.793h.166c1.342 1.848 3.159 4.357 4.182 5.643.362-1.869.759-3.902.987-5.506.11.033.229.051.345.051.115 0 .223-.018.343-.051-.181.617-.688 2.68-.846 3.496a290.784 290.784 0 0 0-.714 3.834h-.147zM7.597 132.223h25.031l-.313 2.814-8.605-.312-4.069 17.99H11.82l4.226-17.99-9.232.47.783-2.972zM37.947 132.223H56.72l-.627 2.502-10.951-.317-1.563 6.26 11.265-.313-.628 2.657-10.95-.463-1.876 7.664 11.263-.625-.469 3.127H33.408l4.539-20.492zM58.287 152.715l4.691-20.492h7.509l-4.067 17.836 11.108-.629-.783 3.285H58.287zM87.695 132.223h18.619l-.626 2.502-11.107-.317-1.252 6.26 11.107-.313-.625 2.657-11.109-.463-1.72 7.664 11.264-.625-.627 3.127H82.847l4.848-20.492zM146.518 132.223h18.619l-.471 2.502-11.107-.317-1.405 6.26 11.108-.313-.471 2.657-11.107-.463-1.721 7.664 11.266-.625-.629 3.127h-18.772l4.69-20.492zM166.859 152.715l4.537-20.492h7.51l-4.072 17.836 11.107-.629-.775 3.285h-18.307zM136.51 148.648l-1.57 2.969c-4.061.939-7.191 1.727-11.262 1.41-3.283-.152-15.33-1.41-15.174-8.287.158-6.889 7.822-13.305 21.904-12.988 3.598 0 5.16-.16 10.01 1.252l-1.875 3.127h-.629c-2.533-1.893-4.498-2.617-7.664-2.656-6.68-.08-13.455 4.219-13.299 10.795 0 3.908 3.131 6.883 8.449 6.883 4.221.152 7.195-.939 10.797-2.662l.313.157z" fill="#366186"/><path d="M49.681 12.853v25.345h47.56c-29.1 32.228-45.996 70.4-36.139 76.189 8.448 4.848 40.361-18.931 67.896-55.228h-2.506c-11.262 13.768-43.958 44.746-51.311 42.398-7.354-2.189 5.633-33.791 24.717-58.354 13.457-17.365 24.721-23.312 40.207-30.35H49.681z" fill="#b8394b"/><path d="M143.391 12.853v25.345h-32.539c5.004-5.165 14.236-12.518 18.77-10.484 2.352.94 1.881 5.166 1.723 8.918h3.285l8.761-23.779z" fill="#b8394b"/></g></svg>
